<mxfile
  host="Electron" 
  agent="Mozilla/5.0 (Macintosh; Intel Mac OS X 10_15_7) AppleWebKit/537.36 (KHTML, like Gecko) draw.io/25.0.2 Chrome/128.0.6613.186 Electron/32.2.5 Safari/537.36" 
  version="25.0.2"
  >
  <diagram
    name="-"
    >
    <mxGraphModel
      grid="1" 
      gridSize="10" 
      guides="1" 
      tooltips="1" 
      connect="1" 
      arrows="1" 
      fold="1" 
      page="1" 
      pageScale="1" 
      pageWidth="1" 
      pageHeight="1" 
      math="0" 
      shadow="0"
      >
      <root>
        <mxCell
          id="page"
          />
        <mxCell
          id="root" 
          parent="page"
          />
        <mxCell
          style="verticalAlign=top;aspect=fixed;align=center;spacingLeft=5;spacingRight=5;spacingBottom=5;strokeColor=none;" 
          id="shape_" 
          parent="root" 
          value=" " 
          vertex="1"
          >
          <mxGeometry
            as="geometry" 
            width="60" 
            height="40" 
            x="0" 
            y="0"
            />
          </mxCell>
        <mxCell
          style="editableCssRules=.*;html=1;shape=image;verticalLabelPosition=bottom;labelBackgroundColor=#ffffff;verticalAlign=top;aspect=fixed;imageAspect=0;image=data:image/svg+xml,PHN2ZyB4bWxucz0iaHR0cDovL3d3dy53My5vcmcvMjAwMC9zdmciIHhtbG5zOnY9Imh0dHBzOi8vdmVjdGEuaW8vbmFubyIgd2lkdGg9IjQyNC4wMDEwMzc1OTc2NTYyNSIgaGVpZ2h0PSIyMTMuOTk4Mzk3ODI3MTQ4NDQiIHZpZXdCb3g9Ii0wLjAwMDAyMDQ4Mjg0MTEzNjk4MTczMyAwIDQyNC4wMDEwMzc1OTc2NTYyNSAyMTMuOTk4Mzk3ODI3MTQ4NDQiPiYjeGE7CTxzdHlsZSB0eXBlPSJ0ZXh0L2NzcyI+JiN4YTsJLnN0MHtmaWxsOiM0Mjg1ZjQ7fSYjeGE7CTwvc3R5bGU+JiN4YTsJPHBhdGggY2xhc3M9InN0MCIgZD0iTTk5LjQzMSA0Ni44NTRsLjM3NC4yODkgMTA1Ljc1OCA4My4yMDhhNDIuMDggNDIuMDggMCAwIDEgNC43MTUtLjM4OWwuNzg5LS4wMTNjMTcuNDExLS4wMDQgMzMuMDE4IDEwLjc1OCAzOS4yMjMgMjcuMDQ5czEuNzIxIDM0LjcyNS0xMS4yNzEgNDYuMzMzYTQxLjkzIDQxLjkzIDAgMCAxLTQ3LjI1MyA1Ljk1NiA0Mi4wNCA0Mi4wNCAwIDAgMS0yMi40NDQtNDEuNTcxbC4wNTYtLjUxOS0uMDI2LS4wM0w4Ny43IDU4Ljk3NmMtOS40ODEtMTIuNTYyLS41NzUtMjEuNDg2IDExLjczLTEyLjEyM3ptMzA2LjgzOCAxMjcuNzI2YzkuNzkzIDAgMTcuNzMyIDcuOTQ5IDE3LjczMiAxNy43NTVzLTcuOTM5IDE3Ljc1NS0xNy43MzIgMTcuNzU1LTE3LjczMi03Ljk0OS0xNy43MzItMTcuNzU1IDcuOTM5LTE3Ljc1NSAxNy43MzItMTcuNzU1ek02MC4yNDEgNjguNzk3bDIwLjQyMyAyOC4zMmEyMTcuMTYgMjE3LjE2IDAgMCAwLTQ2LjkyIDk3LjM5OSAxNy4wNCAxNy4wNCAwIDAgMS0xMS4yODggMTIuOTYxYy01LjgyMyAxLjk2NC0xMi4yNTEuNjMzLTE2LjgxOS0zLjQ4MmExNy4wNiAxNy4wNiAwIDAgMS01LjIyOS0xNi4zOGM4LjgxNy00NC4zMDUgMjkuNDk5LTg1LjM3NiA1OS44MzMtMTE4LjgxN3ptMzIyLjc2MiA0MS4zMDhjOS43OTMgMCAxNy43MzIgNy45NDkgMTcuNzMyIDE3Ljc1NXMtNy45MzkgMTcuNzU1LTE3LjczMiAxNy43NTUtMTcuNzMyLTcuOTQ5LTE3LjczMi0xNy43NTUgNy45MzktMTcuNzU1IDE3LjczMi0xNy43NTV6bS00MS42MjgtNTUuMDk0YzkuNzkzIDAgMTcuNzMyIDcuOTQ5IDE3LjczMiAxNy43NTVzLTcuOTM5IDE3Ljc1NS0xNy43MzIgMTcuNzU1LTE3LjczMi03Ljk0OS0xNy43MzItMTcuNzU1IDcuOTM5LTE3Ljc1NSAxNy43MzItMTcuNzU1em0tNTcuNzkyLTM4Ljk3OWM5Ljc5MyAwIDE3LjczMiA3Ljk0OSAxNy43MzIgMTcuNzU1cy03LjkzOSAxNy43NTUtMTcuNzMyIDE3Ljc1NS0xNy43MzItNy45NDktMTcuNzMyLTE3Ljc1NSA3LjkzOS0xNy43NTUgMTcuNzMyLTE3Ljc1NXptLTEzMy4wNzQtNC4zMjdjOS43OTMgMCAxNy43MzIgNy45NDkgMTcuNzMyIDE3Ljc1NXMtNy45MzkgMTcuNzU1LTE3LjczMiAxNy43NTUtMTcuNzMyLTcuOTQ5LTE3LjczMi0xNy43NTUgNy45MzktMTcuNzU1IDE3LjczMi0xNy43NTV6TTIxNy4zNTcgMGM5Ljc5MyAwIDE3LjczMiA3Ljk0OSAxNy43MzIgMTcuNzU1UzIyNy4xNSAzNS41MSAyMTcuMzU3IDM1LjUxcy0xNy43MzItNy45NDktMTcuNzMyLTE3Ljc1NVMyMDcuNTY0IDAgMjE3LjM1NyAweiIgZmlsbD0iIzQyODVmNCIvPiYjeGE7PC9zdmc+;fontColor=default;strokeColor=none;" 
          id="standard_network_tier_" 
          parent="shape_" 
          value=" " 
          vertex="1"
          >
          <mxGeometry
            width="40" 
            height="20" 
            as="geometry" 
            x="10" 
            y="10"
            />
          </mxCell>
        </root>
      </mxGraphModel>
    </diagram>
  </mxfile>